<svg width="387" height="180" viewBox="0 0 387 180" fill="none" xmlns="http://www.w3.org/2000/svg">
<path d="M386.771 0V162.513C353.268 165.849 307.067 164.638 244.49 152.726C120.928 129.21 38.2728 150.034 0.770508 164.046V0H386.771Z" fill="#6327FE"/>
<path d="M386.771 162.513V179.345C353.139 181.522 306.899 178.689 244.567 164.496C122.119 136.615 38.8294 154.374 0.770508 167.046V164.046C38.2728 150.034 120.928 129.209 244.49 152.726C307.067 164.638 353.268 165.849 386.771 162.513Z" fill="white"/>
<path d="M129.111 26.3493C131.311 26.3493 132.994 27.1349 134.172 28.6932C135.117 29.9295 135.596 31.4363 135.596 33.2006C135.596 36.3687 134.535 39.9747 132.399 44.0185C130.534 47.5086 128.204 50.6381 125.408 53.4198C123.57 55.2099 122.133 56.1114 121.084 56.1114C120.398 56.1114 119.751 55.7637 119.169 55.0811C118.741 54.5917 118.534 54.038 118.534 53.4198C118.534 52.2736 119.531 50.9729 121.538 49.5048C124.36 47.4184 126.599 45.139 128.282 42.6534C130.742 39.0603 131.971 36.0339 131.971 33.5484C131.971 32.5438 131.751 31.784 131.311 31.2946C130.871 30.8052 130.211 30.5606 129.318 30.5606C127.518 30.5606 124.955 31.8613 121.641 34.4756C117.874 37.4119 113.887 41.4042 109.693 46.4654C104.346 52.8918 100.282 59.2151 97.4983 65.4483C94.6115 71.9133 93.1746 77.4252 93.1746 81.9842C93.1746 84.1736 93.8089 86.028 95.0905 87.5606C96.5015 89.2863 98.2233 90.1492 100.256 90.1492C103.803 90.1492 108.256 87.406 113.628 81.9327C115.233 80.2714 117.188 77.8502 119.479 74.695C120.994 72.6731 121.952 71.2307 122.379 70.3936C122.871 69.4535 123.441 68.977 124.101 68.977C124.826 68.977 125.175 69.3247 125.175 70.0073C125.175 71.4754 123.337 74.7723 119.673 79.8979C116.618 84.1736 113.266 87.6636 109.589 90.3681C105.46 93.4074 101.55 94.9142 97.8867 94.9142C94.0549 94.9142 91.0775 93.2013 88.9804 89.7757C87.6341 87.5863 86.9609 85.1008 86.9609 82.2933C86.9609 75.2488 90.3008 66.3627 96.9935 55.622C102.702 46.4912 108.722 39.1376 115.052 33.5484C120.515 28.7447 125.214 26.3493 129.111 26.3493Z" fill="white"/>
<path d="M145.888 57.7083C148.581 57.7083 149.927 59.3439 149.927 62.6021C149.927 66.9422 147.908 72.4413 143.882 79.0866C139.493 86.2985 135.247 89.9045 131.144 89.9045C129.241 89.9045 127.856 89.0287 126.962 87.2644C126.509 86.3886 126.276 85.3197 126.276 84.0834C126.276 79.9108 127.713 75.3776 130.6 70.4838C133.293 65.9505 136.451 62.4218 140.089 59.9105C142.212 58.4424 144.141 57.7083 145.888 57.7083ZM140.775 76.2018C139.959 75.545 139.545 75.0427 139.545 74.6821C139.545 74.4246 140.063 73.7034 141.125 72.5314C144.076 69.2345 145.552 66.5816 145.552 64.5597C145.552 64.3021 145.474 64.0445 145.306 63.7741C145.047 63.2847 144.633 63.04 144.076 63.04C143.027 63.04 141.487 64.0574 139.455 66.0793C136.827 68.6937 134.833 71.3852 133.448 74.1541C131.843 77.3222 131.04 79.9494 131.04 82.0357C131.04 82.5895 131.183 83.0789 131.48 83.5039C131.908 84.0963 132.451 84.3796 133.098 84.3796C134.678 84.3796 136.361 83.2077 138.16 80.8509C138.95 79.8721 139.584 78.8676 140.076 77.8116C140.568 76.7813 140.801 76.2404 140.775 76.2018Z" fill="white"/>
<path d="M158.328 73.0337C157.344 75.5836 156.606 77.6313 156.114 79.2025C155.622 80.7736 155.377 81.8554 155.377 82.4865C155.377 83.2978 155.765 83.7099 156.555 83.7099C157.733 83.7099 159.26 82.6024 161.124 80.3873C162.004 79.3055 163.325 77.3737 165.06 74.5662C165.746 73.4587 166.471 72.9049 167.221 72.9049C168.076 72.9049 168.503 73.317 168.503 74.1283C168.503 75.5321 166.885 78.3654 163.636 82.641C160.257 87.1098 157.124 89.3507 154.237 89.3507C152.995 89.3507 151.972 88.8355 151.182 87.7795C150.626 87.0326 150.341 86.1182 150.341 85.0364C150.341 83.2077 150.897 80.6835 152.011 77.451C153.124 74.2185 154.781 70.2906 156.982 65.6543C162.626 53.8834 168.373 44.1731 174.251 36.5362C178.937 30.406 182.82 27.3409 185.901 27.3409C186.885 27.3409 187.688 27.7144 188.309 28.4614C188.969 29.2083 189.293 30.0712 189.293 31.0499C189.293 35.6218 185.189 43.2201 176.995 53.8577C173.319 58.5841 168.93 63.3233 163.817 68.0497C162.496 69.2732 160.658 70.9345 158.328 73.0337ZM161.823 65.2422C168.645 59.434 174.743 52.0933 180.115 43.2201C182.898 38.6225 184.296 35.5703 184.296 34.0764C184.296 33.3552 183.985 32.9946 183.364 32.9946C181.565 32.9946 178.277 36.5619 173.526 43.7094C169.59 49.5949 165.694 56.7682 161.823 65.2422Z" fill="white"/>
<path d="M186.367 81.1986C185.28 83.0917 184.218 84.6887 183.17 85.9894C181.098 88.5393 179.053 89.8014 177.021 89.8014C175.247 89.8014 173.875 88.9643 172.891 87.303C172.27 86.2212 171.959 84.9591 171.959 83.491C171.959 79.8721 173.111 75.8798 175.402 71.5011C177.966 66.646 181.047 62.9112 184.645 60.2969C187.001 58.5969 189.28 57.747 191.48 57.747C192.853 57.747 194.005 58.172 194.924 59.0219C195.713 59.7689 196.102 60.6189 196.102 61.5719C196.102 62.2931 195.817 63.2847 195.26 64.5597C195.752 65.2422 195.998 65.8475 195.998 66.3755C195.998 67.0581 195.545 68.1914 194.626 69.7497C193.668 71.3466 192.723 73.4715 191.778 76.1116C190.755 78.9191 190.251 81.1729 190.251 82.8599C190.251 84.225 190.665 85.3584 191.48 86.2341C191.713 86.4659 192.387 86.8394 193.5 87.3545C194.315 87.7409 194.73 88.4363 194.73 89.4151C194.73 90.0332 194.497 90.5355 194.043 90.9347C193.552 91.3597 192.982 91.5658 192.322 91.5658C190.548 91.5658 189.021 90.7802 187.752 89.2219C186.704 87.9469 186.173 86.35 186.173 84.4311C186.173 83.7743 186.238 82.7054 186.367 81.1986ZM192.516 65.1006C192.128 64.3794 191.7 63.8513 191.234 63.5165C190.768 63.1688 190.276 63.0014 189.759 63.0014C187.26 63.0014 184.555 65.165 181.642 69.505C178.432 74.2958 176.826 78.3654 176.826 81.688C176.826 82.4993 176.982 83.1175 177.292 83.5425C177.603 83.9675 178.069 84.1735 178.69 84.1735C180.27 84.1735 182.095 82.5122 184.192 79.1767C185.37 77.348 186.833 74.6564 188.568 71.1019C189.72 68.7838 190.548 67.2513 191.079 66.5043C191.351 66.1308 191.817 65.6543 192.516 65.1006Z" fill="white"/>
<path d="M228.892 44.6625C231.092 44.6625 232.775 45.448 233.953 47.0063C234.898 48.2427 235.377 49.7494 235.377 51.5138C235.377 54.6819 234.316 58.2879 232.18 62.3317C230.316 65.8218 227.986 68.9512 225.189 71.733C223.351 73.5231 221.914 74.4246 220.866 74.4246C220.18 74.4246 219.532 74.0768 218.95 73.3943C218.523 72.9049 218.316 72.3511 218.316 71.733C218.316 70.5868 219.312 69.2861 221.319 67.8179C224.141 65.7316 226.38 63.4521 228.063 60.9666C230.523 57.3735 231.753 54.347 231.753 51.8615C231.753 50.857 231.533 50.0972 231.092 49.6078C230.652 49.1184 229.992 48.8737 229.099 48.8737C227.3 48.8737 224.736 50.1744 221.422 52.7888C217.655 55.725 213.668 59.7174 209.474 64.7786C204.128 71.2049 200.063 77.5283 197.28 83.7614C194.393 90.2264 192.956 95.7384 192.956 100.297C192.956 102.487 193.59 104.341 194.872 105.874C196.283 107.599 198.005 108.462 200.037 108.462C203.584 108.462 208.037 105.719 213.409 100.246C215.015 98.5845 216.969 96.1634 219.261 93.0082C220.775 90.9862 221.733 89.5438 222.16 88.7068C222.652 87.7666 223.222 87.2901 223.882 87.2901C224.607 87.2901 224.956 87.6378 224.956 88.3204C224.956 89.7885 223.118 93.0854 219.455 98.2111C216.4 102.487 213.047 105.977 209.37 108.681C205.241 111.721 201.331 113.227 197.668 113.227C193.836 113.227 190.859 111.514 188.762 108.089C187.415 105.899 186.742 103.414 186.742 100.606C186.742 93.5619 190.082 84.6758 196.775 73.9352C202.484 64.8043 208.503 57.4508 214.833 51.8615C220.296 47.0578 224.982 44.6625 228.892 44.6625Z" fill="white"/>
<path d="M245.657 76.0343C248.349 76.0343 249.696 77.6699 249.696 80.9282C249.696 85.2682 247.676 90.7673 243.65 97.4126C239.262 104.625 235.016 108.23 230.912 108.23C229.009 108.23 227.624 107.355 226.731 105.59C226.278 104.715 226.045 103.646 226.045 102.409C226.045 98.2368 227.482 93.7036 230.369 88.8098C233.061 84.2766 236.22 80.7479 239.857 78.2366C241.993 76.7684 243.922 76.0343 245.657 76.0343ZM240.544 94.5278C239.728 93.871 239.314 93.3687 239.314 93.0081C239.314 92.7506 239.832 92.0294 240.893 90.8574C243.845 87.5606 245.32 84.9076 245.32 82.8857C245.32 82.6281 245.243 82.3705 245.074 82.1001C244.815 81.6107 244.401 81.366 243.845 81.366C242.796 81.366 241.256 82.3834 239.223 84.4053C236.595 87.0197 234.602 89.7113 233.217 92.4801C231.611 95.6482 230.809 98.2754 230.809 100.362C230.809 100.916 230.951 101.405 231.249 101.83C231.676 102.422 232.22 102.706 232.867 102.706C234.446 102.706 236.129 101.534 237.929 99.1769C238.718 98.1982 239.353 97.1936 239.844 96.1376C240.349 95.0945 240.582 94.5536 240.544 94.5278Z" fill="white"/>
<path d="M258.111 91.3468C257.127 93.8968 256.39 95.9444 255.898 97.5156C255.406 99.0868 255.16 100.169 255.16 100.8C255.16 101.611 255.548 102.023 256.338 102.023C257.516 102.023 259.043 100.916 260.907 98.7004C261.788 97.6186 263.108 95.6869 264.843 92.8794C265.529 91.7718 266.254 91.2181 267.005 91.2181C267.859 91.2181 268.286 91.6302 268.286 92.4415C268.286 93.8453 266.668 96.6785 263.419 100.954C260.04 105.423 256.907 107.664 254.021 107.664C252.778 107.664 251.755 107.149 250.965 106.093C250.409 105.346 250.124 104.431 250.124 103.35C250.124 101.521 250.681 98.9966 251.794 95.7641C252.907 92.5317 254.564 88.6037 256.765 83.9675C262.409 72.1966 268.157 62.4862 274.034 54.8493C278.72 48.7192 282.604 45.6541 285.685 45.6541C286.668 45.6541 287.471 46.0276 288.092 46.7745C288.753 47.5215 289.076 48.3843 289.076 49.3631C289.076 53.9349 284.973 61.5332 276.778 72.1708C273.102 76.8972 268.713 81.6365 263.6 86.3629C262.267 87.5992 260.428 89.2605 258.111 91.3468ZM261.593 83.5682C268.416 77.7601 274.513 70.4194 279.885 61.5461C282.668 56.9485 284.066 53.8963 284.066 52.4024C284.066 51.6812 283.756 51.3206 283.134 51.3206C281.335 51.3206 278.047 54.8879 273.296 62.0355C269.374 67.9081 265.464 75.0814 261.593 83.5682Z" fill="white"/>
<path d="M286.136 99.5118C285.048 101.405 283.987 103.002 282.938 104.303C280.867 106.852 278.822 108.115 276.789 108.115C275.016 108.115 273.643 107.277 272.66 105.616C272.038 104.534 271.728 103.272 271.728 101.804C271.728 98.1853 272.88 94.193 275.171 89.8143C277.734 84.9591 280.815 81.2244 284.414 78.6101C286.77 76.9101 289.048 76.0601 291.249 76.0601C292.621 76.0601 293.773 76.4851 294.692 77.3351C295.482 78.082 295.87 78.932 295.87 79.885C295.87 80.6062 295.586 81.5979 295.029 82.8728C295.521 83.5554 295.767 84.1607 295.767 84.6887C295.767 85.3712 295.314 86.5045 294.395 88.0628C293.437 89.6598 292.492 91.7847 291.547 94.4248C290.524 97.2323 290.019 99.486 290.019 101.173C290.019 102.538 290.433 103.672 291.249 104.547C291.482 104.779 292.155 105.153 293.268 105.668C294.084 106.054 294.498 106.749 294.498 107.728C294.498 108.346 294.265 108.849 293.812 109.248C293.32 109.673 292.751 109.879 292.09 109.879C290.317 109.879 288.789 109.093 287.521 107.535C286.472 106.26 285.941 104.663 285.941 102.744C285.941 102.087 286.006 101.019 286.136 99.5118ZM292.285 83.4137C291.896 82.6925 291.469 82.1645 291.003 81.8297C290.537 81.4819 290.045 81.3145 289.527 81.3145C287.029 81.3145 284.323 83.4781 281.411 87.8181C278.2 92.6089 276.595 96.6785 276.595 100.001C276.595 100.813 276.75 101.431 277.061 101.856C277.372 102.281 277.838 102.487 278.459 102.487C280.038 102.487 281.864 100.825 283.961 97.4899C285.139 95.6611 286.602 92.9695 288.336 89.4151C289.488 87.097 290.317 85.5644 290.848 84.8175C291.119 84.444 291.598 83.9675 292.285 83.4137Z" fill="white"/>
<path opacity="0.49" d="M31.9681 156.55C39.9969 156.55 46.5056 150.075 46.5056 142.088C46.5056 134.101 39.9969 127.625 31.9681 127.625C23.9393 127.625 17.4307 134.101 17.4307 142.088C17.4307 150.075 23.9393 156.55 31.9681 156.55Z" fill="white"/>
<path opacity="0.49" d="M261.59 160.762C269.619 160.762 276.128 154.287 276.128 146.299C276.128 138.312 269.619 131.837 261.59 131.837C253.561 131.837 247.053 138.312 247.053 146.299C247.053 154.287 253.561 160.762 261.59 160.762Z" fill="white"/>
<path opacity="0.49" d="M65.2762 121.933C69.2942 121.933 72.5514 118.693 72.5514 114.695C72.5514 110.698 69.2942 107.458 65.2762 107.458C61.2582 107.458 58.001 110.698 58.001 114.695C58.001 118.693 61.2582 121.933 65.2762 121.933Z" fill="white"/>
<path opacity="0.49" d="M142.871 146.312C146.889 146.312 150.146 143.072 150.146 139.074C150.146 135.077 146.889 131.837 142.871 131.837C138.853 131.837 135.596 135.077 135.596 139.074C135.596 143.072 138.853 146.312 142.871 146.312Z" fill="white"/>
<path opacity="0.49" d="M316.451 137.941C320.469 137.941 323.726 134.701 323.726 130.703C323.726 126.706 320.469 123.466 316.451 123.466C312.433 123.466 309.176 126.706 309.176 130.703C309.176 134.701 312.433 137.941 316.451 137.941Z" fill="white"/>
<path opacity="0.49" d="M23.1389 97.2709C25.5196 97.2709 27.4496 95.3509 27.4496 92.9824C27.4496 90.6139 25.5196 88.6939 23.1389 88.6939C20.7581 88.6939 18.8281 90.6139 18.8281 92.9824C18.8281 95.3509 20.7581 97.2709 23.1389 97.2709Z" fill="white"/>
<path opacity="0.49" d="M349.113 154.876C351.494 154.876 353.424 152.956 353.424 150.588C353.424 148.219 351.494 146.299 349.113 146.299C346.733 146.299 344.803 148.219 344.803 150.588C344.803 152.956 346.733 154.876 349.113 154.876Z" fill="white"/>
<path opacity="0.49" d="M221.732 134.992C224.112 134.992 226.042 133.072 226.042 130.703C226.042 128.335 224.112 126.415 221.732 126.415C219.351 126.415 217.421 128.335 217.421 130.703C217.421 133.072 219.351 134.992 221.732 134.992Z" fill="white"/>
<path opacity="0.49" d="M362.317 104.818C364.697 104.818 366.627 102.898 366.627 100.529C366.627 98.1607 364.697 96.2407 362.317 96.2407C359.936 96.2407 358.006 98.1607 358.006 100.529C358.006 102.898 359.936 104.818 362.317 104.818Z" fill="white"/>
<path opacity="0.49" d="M374.706 136.872C376.415 136.872 377.8 135.494 377.8 133.794C377.8 132.094 376.415 130.716 374.706 130.716C372.997 130.716 371.612 132.094 371.612 133.794C371.612 135.494 372.997 136.872 374.706 136.872Z" fill="white"/>
<path opacity="0.49" d="M97.8723 131.94C100.253 131.94 102.183 130.02 102.183 127.651C102.183 125.283 100.253 123.363 97.8723 123.363C95.4915 123.363 93.5615 125.283 93.5615 127.651C93.5615 130.02 95.4915 131.94 97.8723 131.94Z" fill="white"/>
<path opacity="0.49" d="M124.1 112.03C125.287 112.03 126.249 111.073 126.249 109.892C126.249 108.711 125.287 107.754 124.1 107.754C122.913 107.754 121.951 108.711 121.951 109.892C121.951 111.073 122.913 112.03 124.1 112.03Z" fill="white"/>
<path opacity="0.49" d="M55.853 78.1722C57.0398 78.1722 58.0019 77.2151 58.0019 76.0344C58.0019 74.8537 57.0398 73.8965 55.853 73.8965C54.6662 73.8965 53.7041 74.8537 53.7041 76.0344C53.7041 77.2151 54.6662 78.1722 55.853 78.1722Z" fill="white"/>
<path opacity="0.49" d="M178.975 127.651C180.162 127.651 181.124 126.694 181.124 125.513C181.124 124.333 180.162 123.376 178.975 123.376C177.788 123.376 176.826 124.333 176.826 125.513C176.826 126.694 177.788 127.651 178.975 127.651Z" fill="white"/>
<path opacity="0.49" d="M328.517 86.5174C329.704 86.5174 330.666 85.5603 330.666 84.3796C330.666 83.1989 329.704 82.2418 328.517 82.2418C327.33 82.2418 326.368 83.1989 326.368 84.3796C326.368 85.5603 327.33 86.5174 328.517 86.5174Z" fill="white"/>
</svg>
