<svg width="94" height="130" viewBox="0 0 94 130" fill="none" xmlns="http://www.w3.org/2000/svg">
<rect width="94" height="130" rx="10" fill="black" fill-opacity="0.8"/>
<rect x="20.4892" y="65.5845" width="49" height="25" transform="rotate(-17.9652 20.4892 65.5845)" stroke="#EAE8FE" stroke-width="2"/>
<rect x="24.2685" y="67.513" width="43" height="19" transform="rotate(-17.9652 24.2685 67.513)" stroke="#EAE8FE" stroke-width="2"/>
<path d="M42.2932 68.8861L40.0559 69.6116L39.568 68.1067L41.8053 67.3812L42.2932 68.8861ZM37.9118 70.3068L36.5934 70.7343L37.1375 72.4123L46.2865 69.4457L45.7425 67.7677L44.4373 68.1909L43.9494 66.686L45.3877 66.2197L44.8436 64.5417L35.4415 67.5903L35.9856 69.2683L37.4239 68.8019L37.9118 70.3068ZM45.7214 75.7367L41.2601 77.1833L40.9967 76.371L45.458 74.9244L45.7214 75.7367ZM48.1083 71.3423L47.5643 69.6643L36.2578 73.3304L36.8019 75.0084L41.383 73.5229L41.6421 74.322L38.3394 75.3929L39.6824 79.5346L48.3786 76.7148L47.0357 72.5731L43.7996 73.6224L43.5405 72.8234L48.1083 71.3423ZM54.2344 63.8221L54.7828 65.5134L56.3809 64.9952L57.0891 67.1793L59.2465 66.4797L57.2083 60.1939L55.0509 60.8934L55.8325 63.3039L54.2344 63.8221ZM55.7006 65.8928C53.7296 65.9873 52.6564 65.1285 52.1692 64.0796L54.4065 63.3542L53.8624 61.6762L47.1238 63.8612L47.6679 65.5392L49.9185 64.8094C50.1481 65.9713 49.7729 67.4469 48.0718 68.6461L49.6147 70.0002C50.9278 69.1476 51.5927 67.9754 51.8109 66.742C52.6501 67.5148 53.7975 67.9669 55.2459 67.8947L55.7006 65.8928ZM54.4519 72.9353L54.3137 72.5092L60.5463 70.4883L59.389 66.9192L51.0123 69.6353L51.5392 71.26L57.785 69.2348L57.9189 69.6477L51.6863 71.6686L52.8522 75.2643L61.5219 72.4531L60.9907 70.8151L54.4519 72.9353Z" fill="#EAE8FE"/>
</svg>
